# xmcd
#
# Track frame offsets: 
#        150
#        10955
#        22891
#        42428
#        51722
#        63171
#        75417
#        87115
#        100550
#        110135
#        120727
#        133541
#        148218
#        159899
#        173068
#        189442
#        205411
#        218499
#        232709
#        245365
#        256012
#        269660
#        289994
#        302722
#        324450
#        337093
#
# Disc length: 4742 seconds
#
# Revision: 0
# Processed by: cddbd v1.5.2PL0 Copyright (c) Steve Scherf et al.
# Submitted via: ExactAudioCopy v0.95b2
#
DISCID=6c12841a
DTITLE=Various Artist - 101 Country Hits (4)
DYEAR=2007
DGENRE=Country
TTITLE0=Jim Reeves - He'll Have To Go
TTITLE1=Eddy Arnold - Make The World Go Away
TTITLE2=Marty Robbins - El Paso
TTITLE3=Frankie Laine - Rawhide
TTITLE4=Don Gibson - Sea Of Heartbreak
TTITLE5=Johnny Cash - I Walk The Line
TTITLE6=Tennessee Ernie Ford - Sixteen Tons
TTITLE7=Jimmy Dean - Big Bad John
TTITLE8=Ned Miller - From A Jack To A King
TTITLE9=Slim Whitman - Rose Marie
TTITLE10=Faron Young - Your Cheatin' Heart
TTITLE11=George Jones - He Stopped Loving Her Today
TTITLE12=Skeeter Davis - End Of The World
TTITLE13=Glen Campbell - Honey, Come Back
TTITLE14=Kenny Rogers - Lucille
TTITLE15=Billie Jo Spears - Blanket On The Ground
TTITLE16=Crystal Gayle - Talking In Your Sleep
TTITLE17=Dr. Hook - If Not You
TTITLE18=Charley Pride - Crystal Chandeliers
TTITLE19=The Everly Brothers - Bye Bye Love
TTITLE20=Willie Nelson - Funny How Time Slips Away
TTITLE21=Kris Kristofferson - Sunday Mornin' Comin' Down
TTITLE22=Boby Bare - Four Strong Winds
TTITLE23=Nitty Gritty Dirt Band - Will The Circle Be Unbroken
TTITLE24=Tanya Tucker - Would You Lay With Me (In A Field Of Stone)
TTITLE25=Joe South - Walk A Mile In My Shoes
EXTD=
EXTT0=
EXTT1=
EXTT2=
EXTT3=
EXTT4=
EXTT5=
EXTT6=
EXTT7=
EXTT8=
EXTT9=
EXTT10=
EXTT11=
EXTT12=
EXTT13=
EXTT14=
EXTT15=
EXTT16=
EXTT17=
EXTT18=
EXTT19=
EXTT20=
EXTT21=
EXTT22=
EXTT23=
EXTT24=
EXTT25=
PLAYORDER=
